<?xml version="1.0" encoding="UTF-8" standalone="no"?>
<svg
   xmlns="http://www.w3.org/2000/svg"
   width="11.492839mm"
   height="11.492839mm"
   viewBox="0 0 11.492839 11.492839"
   version="1.1"
   id="github-mark">
  <path
     id="mark"
     d="M 5.7464192,0 A 5.7464851,5.7464851 0 0 0 0,5.7464193 5.7464851,5.7464851 0 0 0 5.7464192,11.492838 5.7464851,5.7464851 0 0 0 11.492838,5.7464193 5.7464851,5.7464851 0 0 0 5.7464192,0 Z M 6.5561889,1.8794718 C 7.6111054,1.8649465 8.6715101,2.00289 9.6882975,2.2934 c 0.116204,0.038734 0.4649745,0.1163848 0.2713011,0.3100586 -0.1162042,0.1162042 -0.6196681,0 -0.7358723,0 C 8.4490313,2.525989 7.6352576,2.5260116 6.8605632,2.642216 6.0083985,2.7584202 5.1564074,3.029611 4.4979166,3.6106322 4.110569,3.8817754 3.5295003,4.8499009 3.5295003,4.9661051 3.4907653,5.0823093 3.3358693,5.6244178 2.7161132,5.5469483 2.4837048,5.5082136 2.2901866,5.4311476 2.0965128,5.3536784 1.4767568,5.1987392 1.5926903,4.5402011 1.6314249,4.3852619 2.2124462,2.680933 4.0331696,2.0995232 5.5050904,1.9445841 5.853703,1.9058494 6.20455,1.8843136 6.5561889,1.8794718 Z m 1.350305,1.3823446 c 0.7359602,0 1.5105023,0.116272 1.5105023,0.116272 0.07747,0 0.1162719,0.07756 0.1162719,0.1550291 0,0.07747 -0.038802,0.1545127 -0.1162719,0.1545127 H 9.1074543 c -1.0458384,0 -1.7821193,0.1552099 -2.3244058,0.4650878 C 6.2407614,4.4625961 5.8537702,4.9272148 5.6213623,5.5857055 5.5826284,5.6244395 5.5049099,5.9732561 5.1950318,5.9345213 L 4.4979166,5.8570066 C 4.1880385,5.7408024 4.1878805,5.4699053 4.2266152,5.3924356 4.26535,5.1212925 4.3817124,4.8496977 4.4979166,4.6172893 4.6915903,4.3461459 4.9626908,4.0750906 5.3113037,3.8814169 5.9697945,3.4940693 6.8993908,3.2618164 7.9064939,3.2618164 Z M 8.233606,4.5361572 c 0.093366,-0.00212 0.1908098,-0.00122 0.2924884,0.00362 0.3873476,0 0.1936739,0.2713011 0,0.2713014 C 7.5964605,4.7723409 7.1704863,5.3922568 6.9380776,5.9732783 6.8606079,6.166952 6.705915,6.2057994 6.4735066,6.167065 6.3573024,6.1283305 6.202228,6.12815 6.2409627,5.8570061 6.3499041,5.3486124 6.8331119,4.5679312 8.233606,4.5361566 Z M 1.9802409,6.1670655 c 0.2324084,0 0.5810011,0.1158004 0.8521443,0.1932696 0.3098779,0.07747 0.4645713,0.3489516 0.4645713,0.58136 0,1.394451 1.2395165,2.3238891 1.7818031,2.3238891 0.2324086,0 0.1549622,0.2713014 0.038758,0.2713014 -0.154939,0.07747 -0.3871249,0.077515 -0.5033286,0.077514 -0.2711431,0 -0.5422436,-0.038779 -0.8133871,-0.077514 C 3.3747194,9.4594164 3.0259911,9.3429634 2.7161132,9.110555 1.980153,8.6457379 1.5538651,7.7937921 1.4763956,6.8254232 c 0,-0.2324087 -0.038441,-0.6970927 0.5038453,-0.6583577 z m 2.4789185,0.464571 0.6971149,0.077515 c 0.1549389,0.038734 0.2713238,0.1163847 0.3100586,0.3100586 0.1549389,0.9683686 0.736098,1.3555403 1.1234457,1.4717448 0.07747,0 0.1157552,0.038802 0.1157552,0.1162719 0,0.07747 -0.038285,0.1162944 -0.1157552,0.1550292 -0.1936737,0 -0.3489058,8e-7 -0.5038453,0 -0.5035513,0 -1.0068599,-0.2327696 -1.3554728,-0.6201172 C 4.4205823,7.7935259 4.226593,7.4452919 4.187858,7.0192098 4.1491233,6.7093317 4.3042202,6.6316365 4.4591594,6.6316365 Z m 1.9755897,0.1937867 h 0.3482994 c 0.1162042,0 0.1550291,0.1550519 0.1550291,0.1937866 0.038734,0.3873474 0.2713916,0.542131 0.4263306,0.6196005 0.07747,0.038734 0.038644,0.1937863 -0.1550292,0.1937863 -0.2324084,0 -0.425904,-0.077583 -0.5808432,-0.1937863 C 6.4348621,7.4838711 6.27972,7.2515955 6.27972,6.9804523 c 0,-0.1549389 0.1550291,-0.1550291 0.1550291,-0.1550291 z"
     style="fill:#000000;stroke:none;" />
</svg>
