<?xml version="1.0" encoding="UTF-8" standalone="no"?>
<svg
   xmlns="http://www.w3.org/2000/svg"
   id="github-mark"
   version="1.1"
   viewBox="0 0 11.4929 11.209466"
   height="11.209466mm"
   width="11.4929mm">
  <path
     id="mark"
     style="fill:#1b1817;stroke:none"
     d="M 5.74604,0 C 2.5728101,0 0,2.572808 0,5.74675 c 0,2.5389408 1.64641,4.69265 3.92994,5.452886 0.28752,0.05256 0.39229,-0.124884 0.39229,-0.277284 0,-0.136172 -0.005,-0.497769 -0.008,-0.9771942 -1.5984399,0.3471332 -1.9356899,-0.770467 -1.9356899,-0.770467 -0.26141,-0.663575 -0.63818,-0.840316 -0.63818,-0.840316 -0.5217601,-0.356659 0.0395,-0.349603 0.0395,-0.349603 0.5768,0.04092 0.88019,0.592314 0.88019,0.592314 0.51258,0.878064 1.3451399,0.624416 1.6725099,0.477661 0.0522,-0.371475 0.20038,-0.624769 0.36478,-0.76835 C 3.4213401,8.1414048 2.0797301,7.648222 2.0797301,5.446183 c 0,-0.627239 0.22401,-1.140178 0.5916,-1.541991 -0.0593,-0.145345 -0.25647,-0.729545 0.0561,-1.520826 0,0 0.4826,-0.154516 1.5804399,0.589139 C 4.76613,2.845153 5.2579,2.7813 5.7465,2.779183 6.23439,2.781283 6.72616,2.845153 7.18513,2.972505 8.28226,2.22885 8.76381,2.383366 8.76381,2.383366 c 0.31361,0.791281 0.11641,1.375481 0.0571,1.520826 0.3683,0.401813 0.5909,0.914752 0.5909,1.541991 0,2.207683 -1.34373,2.6934578 -2.62396,2.8356278 0.20637,0.177447 0.39017,0.528108 0.39017,1.06433 0,0.7679982 -0.007,1.3878282 -0.007,1.5762112 0,0.153812 0.10336,0.33267 0.39511,0.276578 C 9.8479,10.437283 11.4929,8.2849858 11.4929,5.74675 11.4929,2.572808 8.91974,0 5.7458,0" />
</svg>
