<?xml version="1.0" encoding="UTF-8" standalone="no"?>
<svg xmlns="http://www.w3.org/2000/svg" width="96" height="96" id="improve-mark" version="1.1">
<circle style="fill:#175ca1;" cx="48" cy="48" r="48"/>
<g style="fill:#ffffff">
<path d="m 45.099995,24.009948 a 1.3745063,1.3632018 0 0 1 1.353679,1.382351 v 4.370755 h 4.407618 a 1.3745063,1.3632018 0 1 1 0,2.725988 h -4.407618 v 4.370754 a 1.3745063,1.3632018 0 1 1 -2.748799,0 v -4.370754 h -4.417103 a 1.3745063,1.3632018 0 1 1 0,-2.725988 h 4.417103 v -4.370755 a 1.3745063,1.3632018 0 0 1 1.39512,-1.382351 z"/>
<path d="m 34.667931,18.000151 a 1.3745063,1.3632018 0 0 1 1.353679,1.382352 v 1.775361 h 1.781287 a 1.3745063,1.3632018 0 1 1 0,2.725988 H 36.02161 v 1.775361 a 1.3745063,1.3632018 0 1 1 -2.748525,0 V 23.883852 H 31.48252 a 1.3745063,1.3632018 0 1 1 0,-2.725988 h 1.790565 v -1.775361 a 1.3745063,1.3632018 0 0 1 1.394846,-1.382352 z"/>
<path d="m 30.454392,38.072839 a 1.3745063,1.3632018 0 0 1 1.353679,1.382351 v 4.370755 h 4.407619 a 1.3745063,1.3632018 0 1 1 0,2.726001 h -4.407619 v 4.370755 a 1.3745063,1.3632018 0 1 1 -2.748731,0 v -4.370755 h -4.407687 a 1.3745063,1.3632018 0 1 1 0,-2.726001 H 29.05934 V 39.45519 a 1.3745063,1.3632018 0 0 1 1.395052,-1.382351 z"/>
<path d="m 22.584057,30.746874 a 1.3745063,1.3632018 0 0 1 1.35368,1.38242 v 1.775293 h 1.790565 a 1.3745063,1.3632018 0 1 1 0,2.725988 h -1.790565 v 1.775361 a 1.3745063,1.3632018 0 1 1 -2.748731,0 v -1.775361 h -1.790497 a 1.3745063,1.3632018 0 1 1 0,-2.725988 h 1.790497 v -1.775293 a 1.3745063,1.3632018 0 0 1 1.395051,-1.38242 z"/>
<path d="m 27.047962,23.80874 a 1.3746023,1.3631065 0 0 1 0.951568,0.398872 l 49.597974,49.183256 a 1.3746023,1.3631065 0 0 1 0,1.927495 l -2.301674,2.282471 a 1.3746023,1.3631065 0 0 1 -1.943822,0 L 23.754034,28.417645 a 1.3746023,1.3631065 0 0 1 0,-1.927562 l 2.301674,-2.282471 a 1.3746023,1.3631065 0 0 1 0.992254,-0.398872 z"/>
</g>
</svg>
