<?xml version="1.0" encoding="UTF-8" standalone="no"?>
<svg xmlns="http://www.w3.org/2000/svg" width="661" height="661" version="1.1" id="issue-mark" style="fill-rule:evenodd">
<path style="fill:#4d9a34" id="mark" d="M 661,330.5 C 661,147.972 513.028,0 330.5,0 147.972,0 0,147.972 0,330.5 0,513.028 147.972,661 330.5,661 513.028,660.954 661,512.981 661,330.5 Z"/>
<path style="fill:#ffffff" d="m 394,145 v 60.997 C 394,229.321 415.078,234 435.487,234 H 491 Z"/>
<path style="fill:#ffffff" d="M 448.177,334.932 H 263.303 c -6.601,0 -11.947,-5.353 -11.947,-11.951 0,-6.607 5.346,-11.943 11.947,-11.943 h 184.874 c 6.601,0 11.955,5.336 11.955,11.943 0,6.589 -5.354,11.951 -11.955,11.951 m 0,66.181 H 297.836 c -6.6,0 -11.946,-5.336 -11.946,-11.942 0,-6.59 5.354,-11.934 11.946,-11.934 h 150.341 c 6.601,0 11.955,5.344 11.955,11.934 0,6.606 -5.354,11.942 -11.955,11.942 m 0,66.216 h -128.55 c -6.6,0 -11.946,-5.353 -11.946,-11.951 0,-6.607 5.355,-11.951 11.946,-11.951 h 128.55 c 6.601,0 11.955,5.344 11.955,11.951 0,6.598 -5.354,11.951 -11.955,11.951 M 260.95,244.814 h 67.726 c 6.592,0 11.947,5.37 11.947,11.96 0,6.607 -5.355,11.942 -11.947,11.942 H 260.95 c -6.61,0 -11.947,-5.335 -11.947,-11.942 0,-6.59 5.346,-11.96 11.947,-11.96 m 0,-66.19 h 67.726 c 6.592,0 11.947,5.336 11.947,11.943 0,6.58 -5.355,11.942 -11.947,11.942 H 260.95 c -6.61,0 -11.947,-5.353 -11.947,-11.942 0,-6.607 5.346,-11.943 11.947,-11.943 m 150.427,74.526 c -19.265,0 -38.478,-16.353 -38.478,-40.238 V 139 H 226.632 c -11.895,0 -21.532,9.66 -21.532,21.533 v 119.183 l 70.902,149.805 -1.644,85.379 H 472.46 c 11.894,0 21.54,-9.633 21.54,-21.524 V 253.15 Z M 258.873,522 l 1.488,-87.723 -71.083,34.271 z m -64.655,-224.798 -71.083,34.28 60.416,125.219 71.101,-34.288 z m -20.935,-43.403 c -2.863,-5.941 -10.017,-8.432 -15.969,-5.561 l -49.552,23.903 c -5.943,2.871 -8.443,10.022 -5.571,15.946 l 13.591,28.175 71.091,-34.297 z" />
</svg>
